HIERARCHY
ROOT joint_Root
{
	OFFSET 0.0 0.0 0.0
	CHANNELS 6 Xposition Yposition Zposition Zrotation Xrotation Yrotation 
	JOINT Hips
	{
		OFFSET -0.726466 93.3139 -2.00062
		CHANNELS 6 Xposition Yposition Zposition Zrotation Xrotation Yrotation 
		JOINT Spine
		{
			OFFSET 15.7357 0.0 0.0
			CHANNELS 6 Xposition Yposition Zposition Zrotation Xrotation Yrotation 
			JOINT Chest
			{
				OFFSET 8.98455 -0.406207 0.0
				CHANNELS 6 Xposition Yposition Zposition Zrotation Xrotation Yrotation 
				JOINT Neck
				{
					OFFSET 16.3773 0.0 0.0
					CHANNELS 6 Xposition Yposition Zposition Zrotation Xrotation Yrotation 
					JOINT Head
					{
						OFFSET 6.45672 0.0 0.0
						CHANNELS 6 Xposition Yposition Zposition Zrotation Xrotation Yrotation 
						End Site
						{
							OFFSET 0.0 0.0 0.0
						}
					}
				}
				JOINT Shoulder_L
				{
					OFFSET 12.9942 -0.242716 4.98039
					CHANNELS 6 Xposition Yposition Zposition Zrotation Xrotation Yrotation 
					JOINT UpperArm_L
					{
						OFFSET 5.34809 0.0 0.0
						CHANNELS 6 Xposition Yposition Zposition Zrotation Xrotation Yrotation 
						JOINT LowerArm_L
						{
							OFFSET 24.3286 1.87007e-05 0.0
							CHANNELS 6 Xposition Yposition Zposition Zrotation Xrotation Yrotation 
							JOINT Hand_L
							{
								OFFSET 22.2916 0.0 0.0
								CHANNELS 6 Xposition Yposition Zposition Zrotation Xrotation Yrotation 
								End Site
								{
									OFFSET 0.0 0.0 0.0
								}
							}
						}
					}
				}
				JOINT Shoulder_R
				{
					OFFSET 12.9945 -0.242716 -4.98039
					CHANNELS 6 Xposition Yposition Zposition Zrotation Xrotation Yrotation 
					JOINT UpperArm_R
					{
						OFFSET -5.34813 0.0 0.0
						CHANNELS 6 Xposition Yposition Zposition Zrotation Xrotation Yrotation 
						JOINT LowerArm_R
						{
							OFFSET -24.3289 0.000322201 0.0
							CHANNELS 6 Xposition Yposition Zposition Zrotation Xrotation Yrotation 
							JOINT Hand_R
							{
								OFFSET -22.2915 -0.000108084 0.0
								CHANNELS 6 Xposition Yposition Zposition Zrotation Xrotation Yrotation 
								End Site
								{
									OFFSET 0.0 0.0 0.0
								}
							}
						}
					}
				}
			}
		}
		JOINT UpperLeg_L
		{
			OFFSET -2.19248 -6.46944 0.0
			CHANNELS 6 Xposition Yposition Zposition Zrotation Xrotation Yrotation 
			JOINT LowerLeg_L
			{
				OFFSET 39.0811 0.0 -1.23785e-05
				CHANNELS 6 Xposition Yposition Zposition Zrotation Xrotation Yrotation 
				JOINT Foot_L
				{
					OFFSET 40.9854 0.0 -1.26872e-05
					CHANNELS 6 Xposition Yposition Zposition Zrotation Xrotation Yrotation 
					JOINT Toes_L
					{
						OFFSET 11.7543 0.0 0.0
						CHANNELS 6 Xposition Yposition Zposition Zrotation Xrotation Yrotation 
						End Site
						{
							OFFSET 0.0 0.0 0.0
						}
					}
				}
			}
		}
		JOINT UpperLeg_R
		{
			OFFSET -2.19251 6.46944 0.0
			CHANNELS 6 Xposition Yposition Zposition Zrotation Xrotation Yrotation 
			JOINT LowerLeg_R
			{
				OFFSET -39.0811 -0.00228153 -0.0401928
				CHANNELS 6 Xposition Yposition Zposition Zrotation Xrotation Yrotation 
				JOINT Foot_R
				{
					OFFSET -40.9854 0.0 0.0
					CHANNELS 6 Xposition Yposition Zposition Zrotation Xrotation Yrotation 
					JOINT Toes_R
					{
						OFFSET -11.7543 0.0 0.0
						CHANNELS 6 Xposition Yposition Zposition Zrotation Xrotation Yrotation 
						End Site
						{
							OFFSET 0.0 0.0 0.0
						}
					}
				}
			}
		}
	}
}
MOTION
Frames:	4
Frame Time:	0.0333333
0.000000 0.000000 0.000000 0.000000 0.000000 -0.000000 -0.618210 92.209400 -0.733457 87.876000 -1.458850 2.935040 15.735700 0.000005 -0.000001 78.337300 87.699800 -77.616900 8.984550 -0.406207 -0.000000 -3.254180 -0.998785 1.412750 16.377300 -0.000001 -0.000001 -3.610680 -2.001120 0.761505 6.456720 -0.000001 -0.000000 -6.460260 -2.000170 0.712177 12.994200 -0.242716 4.980390 -84.497500 -11.763900 -64.709100 5.348090 -0.000007 -0.000001 -65.654100 -51.547300 -94.008200 24.328600 0.000019 0.000005 2.502270 1.399790 -60.794500 22.291600 -0.000001 0.000005 19.838900 5.615030 -12.285300 12.994500 -0.242716 -4.980390 92.689700 -6.320730 -66.891100 -5.348130 -0.000001 -0.000004 -55.071100 -50.607900 -101.655000 -24.328900 0.000322 -0.000009 -0.455713 -0.435612 -46.219300 -22.291500 -0.000108 -0.000004 21.590200 5.540800 -8.279110 -2.192480 -6.469440 -0.000000 -169.265000 -17.962100 -2.606010 39.081100 -0.000007 -0.000012 -0.158075 0.415334 20.836800 40.985400 -0.000006 -0.000013 -7.002260 -2.368280 -63.032300 11.754300 -0.000000 0.000003 -0.000080 -0.000847 -16.610200 -2.192510 6.469440 -0.000001 174.594000 21.413700 178.863000 -39.081100 -0.002282 -0.040193 0.041104 -0.107687 19.333200 -40.985400 0.000008 0.000006 -1.035640 0.175198 -62.998200 -11.754300 -0.000006 -0.000006 -0.003799 -0.049331 -18.579700
0.000000 0.000000 0.000000 0.000000 0.000000 -0.000000 -0.631590 92.208600 -0.766060 87.880200 -1.398190 2.941650 15.735700 0.000005 -0.000001 78.809000 87.660300 -78.111900 8.984550 -0.406207 -0.000000 -3.169590 -0.974251 1.367710 16.377300 -0.000001 -0.000001 -3.435520 -1.992930 0.792195 6.456720 -0.000001 -0.000000 -6.331030 -1.977590 0.724948 12.994200 -0.242716 4.980390 -84.494200 -11.734200 -64.640700 5.348090 -0.000007 -0.000001 -65.361700 -51.570200 -93.788300 24.328600 0.000019 0.000005 2.405860 1.348190 -60.750900 22.291600 -0.000001 0.000005 19.725800 5.615630 -12.325400 12.994500 -0.242716 -4.980390 92.676300 -6.258230 -66.790200 -5.348130 -0.000001 -0.000004 -54.461000 -50.804900 -101.209000 -24.328900 0.000322 -0.000009 -0.459597 -0.441774 -46.060800 -22.291500 -0.000108 -0.000004 21.684900 5.539480 -8.219040 -2.192480 -6.469440 -0.000000 -169.266000 -17.990000 -2.660360 39.081100 -0.000007 -0.000012 -0.158106 0.414831 20.863700 40.985400 -0.000006 -0.000013 -6.986580 -2.310070 -62.996600 11.754300 -0.000000 0.000003 -0.000080 -0.000848 -16.610200 -2.192510 6.469440 -0.000001 174.605000 21.431100 178.863000 -39.081100 -0.002282 -0.040193 0.040833 -0.107004 19.318400 -40.985400 0.000008 0.000006 -1.035410 0.134340 -63.017100 -11.754300 -0.000006 -0.000006 -0.003704 -0.048330 -18.538900
0.000000 0.000000 0.000000 0.000000 0.000000 -0.000000 -0.652287 92.214200 -0.813826 87.854900 -1.341510 2.918620 15.735700 0.000005 -0.000001 78.901700 87.619600 -78.206200 8.984550 -0.406207 -0.000000 -3.088110 -0.981879 1.364650 16.377300 -0.000001 -0.000001 -3.267860 -2.009280 0.832421 6.456720 -0.000001 -0.000000 -6.230820 -1.949210 0.691688 12.994200 -0.242716 4.980390 -84.501400 -11.680500 -64.569600 5.348090 -0.000007 -0.000001 -65.088500 -51.620400 -93.566900 24.328600 0.000019 0.000005 2.519160 1.413420 -60.722500 22.291600 -0.000001 0.000005 19.572900 5.615120 -12.291200 12.994500 -0.242716 -4.980390 92.684000 -6.265010 -66.752100 -5.348130 -0.000001 -0.000004 -54.274700 -50.941300 -100.985000 -24.328900 0.000322 -0.000009 -0.455920 -0.439094 -46.004500 -22.291500 -0.000108 -0.000004 21.361200 5.539630 -8.225850 -2.192480 -6.469440 -0.000000 -169.254000 -17.899100 -2.720660 39.081100 -0.000007 -0.000012 -0.157688 0.414031 20.850000 40.985400 -0.000006 -0.000013 -6.993560 -2.331840 -62.961800 11.754300 -0.000000 0.000003 -0.000091 -0.000953 -16.614200 -2.192510 6.469440 -0.000001 174.674000 21.459700 178.819000 -39.081100 -0.002282 -0.040193 0.041696 -0.109531 19.307500 -40.985400 0.000008 0.000006 -0.948220 0.088317 -62.998100 -11.754300 -0.000006 -0.000006 -0.003864 -0.050014 -18.607500
0.000000 0.000000 0.000000 0.000000 0.000000 -0.000000 -0.670449 92.212800 -0.863039 87.862000 -1.306550 2.923840 15.735700 0.000005 -0.000001 79.347500 87.574200 -78.673900 8.984550 -0.406207 -0.000000 -2.992320 -0.959658 1.322410 16.377300 -0.000001 -0.000001 -3.183840 -2.015580 0.851293 6.456720 -0.000001 -0.000000 -6.086270 -1.969680 0.736931 12.994200 -0.242716 4.980390 -84.501000 -11.661400 -64.531900 5.348090 -0.000007 -0.000001 -64.836600 -51.670900 -93.388400 24.328600 0.000019 0.000005 2.583590 1.457560 -60.589100 22.291600 -0.000001 0.000005 19.466900 5.615040 -12.285900 12.994500 -0.242716 -4.980390 92.680200 -6.238660 -66.694300 -5.348130 -0.000001 -0.000004 -54.115400 -51.023600 -100.793000 -24.328900 0.000322 -0.000009 -0.377060 -0.363940 -45.926200 -22.291500 -0.000108 -0.000004 21.329700 5.537880 -8.146680 -2.192480 -6.469440 -0.000000 -169.262000 -17.872500 -2.783400 39.081100 -0.000007 -0.000012 -0.158657 0.416009 20.876000 40.985400 -0.000006 -0.000013 -6.988160 -2.315860 -62.925600 11.754300 -0.000000 0.000003 -0.000092 -0.000955 -16.614200 -2.192510 6.469440 -0.000001 174.677000 21.531300 178.802000 -39.081100 -0.002282 -0.040193 0.041115 -0.107897 19.303700 -40.985400 0.000008 0.000006 -0.986296 0.119057 -63.006300 -11.754300 -0.000006 -0.000006 -0.003549 -0.046667 -18.471200
